<svg xmlns="http://www.w3.org/2000/svg" fill="none" viewBox="0 0 250 196">
    <path
        d="m12.3 1.255 44.355 27.388a8.07 8.07 0 0 1 3.829 6.866V160.63a8.066 8.066 0 0 1-3.924 6.923l-44.355 26.554A8.063 8.063 0 0 1 0 187.184V8.12a8.066 8.066 0 0 1 12.3-6.865Z"
        fill="#888" fill-rule="evenodd" clip-rule="evenodd"/>
    <path d="m0 65.266 60.484 34.697v34.016L0 65.266Z" fill="#000" fill-rule="evenodd" clip-rule="evenodd"
          opacity=".078"/>
    <path d="m0 65.266 60.484 33.813v20.78L0 65.266Z" fill="#000" fill-rule="evenodd" clip-rule="evenodd"
          opacity=".078"/>
    <path
        d="M237.71 1.224 193.355 28.52a8.07 8.07 0 0 0-3.839 6.872V160.63a8.07 8.07 0 0 0 3.924 6.924l44.354 26.553A8.064 8.064 0 0 0 250 187.185V8.096a8.067 8.067 0 0 0-12.29-6.872Z"
        fill="#888" fill-rule="evenodd" clip-rule="evenodd"/>
    <path d="M250 65.266 189.516 99.89v35.116L250 65.266Z" fill="#000" fill-rule="evenodd" clip-rule="evenodd"
          opacity=".078"/>
    <path d="M250 65.266 189.516 99.05v21.836L250 65.266Z" fill="#000" fill-rule="evenodd" clip-rule="evenodd"
          opacity=".078"/>
    <path d="M12.279 1.19 125 70.307v66.562L0 65.246V8.069A8.066 8.066 0 0 1 12.279 1.19Z" fill="#888"
          fill-rule="evenodd" clip-rule="evenodd"/>
    <path d="M12.279 1.19 125 70.307v66.562L0 65.246V8.069A8.066 8.066 0 0 1 12.279 1.19Z" fill="#fff"
          fill-opacity=".15" fill-rule="evenodd" clip-rule="evenodd"/>
    <path d="M237.721 1.19 125 70.307v66.562l125-71.624V8.069a8.067 8.067 0 0 0-12.279-6.879Z" fill="#888"
          fill-rule="evenodd" clip-rule="evenodd"/>
    <path d="M237.721 1.19 125 70.307v66.562l125-71.624V8.069a8.067 8.067 0 0 0-12.279-6.879Z" fill="#fff"
          fill-opacity=".3" fill-rule="evenodd" clip-rule="evenodd"/>
</svg>
